# xmcd
#
# Track frame offsets: 
#        150
#        10651
#        25024
#        39869
#        52971
#        70358
#        78760
#        93941
#        109988
#        122394
#        136265
#        146428
#        159053
#        169275
#        183006
#        197835
#        208059
#
# Disc length: 2905 seconds
#
# Revision: 0
# Processed by: cddbd v1.5.2PL0 Copyright (c) Steve Scherf et al.
# Submitted via: ExactAudioCopy v0.95b3
#
DISCID=ce0b5711
DTITLE=Various Artist - Country No.1 [CD8-Ponny express)
DYEAR=2007
DGENRE=Country
TTITLE0=Ponny express
TTITLE1=Volny jako ptak v oblacich
TTITLE2=Cerny kozel
TTITLE3=Slamu v botach nosim
TTITLE4=Pres plane
TTITLE5=Lodni zvon zvoni
TTITLE6=Maskot
TTITLE7=Benzin
TTITLE8=Chlpi nebrecej
TTITLE9=Sest bilych koni)
TTITLE10=Cindy
TTITLE11=Stry muz
TTITLE12=Nemam nic proti krumpaci a lopate
TTITLE13=Vyrazim jrste dnes
TTITLE14=Koureni
TTITLE15=Karel (Oh Carol)
TTITLE16=Hratky
EXTD=
EXTT0=
EXTT1=
EXTT2=
EXTT3=
EXTT4=
EXTT5=
EXTT6=
EXTT7=
EXTT8=
EXTT9=
EXTT10=
EXTT11=
EXTT12=
EXTT13=
EXTT14=
EXTT15=
EXTT16=
PLAYORDER=
